<svg width="48" height="60" viewBox="0 0 48 60" fill="none" xmlns="http://www.w3.org/2000/svg">
<path d="M40.0908 31.9079C40.12 29.6081 40.7206 27.3532 41.8369 25.3529C42.9532 23.3527 44.5489 21.6721 46.4755 20.4676C45.2516 18.6899 43.637 17.227 41.7599 16.195C39.8828 15.163 37.7949 14.5903 35.6621 14.5224C31.1125 14.0368 26.7019 17.2911 24.3835 17.2911C22.0202 17.2911 18.4507 14.5707 14.6068 14.6511C12.1206 14.7328 9.69749 15.468 7.5737 16.7853C5.44992 18.1025 3.69786 19.9567 2.48823 22.1673C-2.75162 31.3933 1.15684 44.9524 6.17617 52.41C8.68745 56.0618 11.6224 60.1409 15.4628 59.9963C19.2208 59.8377 20.6243 57.5592 25.1605 57.5592C29.6547 57.5592 30.9715 59.9963 34.8897 59.9043C38.9223 59.8377 41.4629 56.2363 43.8861 52.5499C45.6905 49.9479 47.0789 47.0721 48 44.029C45.6572 43.0213 43.658 41.3346 42.2515 39.1791C40.845 37.0236 40.0936 34.4948 40.0908 31.9079Z" fill="white"/>
<path d="M32.6899 9.61781C34.8886 6.93355 35.9718 3.48338 35.7095 0C32.3504 0.358801 29.2475 1.9915 27.0191 4.57277C25.9296 5.83379 25.0951 7.30083 24.5634 8.89002C24.0317 10.4792 23.8133 12.1594 23.9204 13.8345C25.6006 13.8521 27.2628 13.4818 28.7818 12.7514C30.3008 12.021 31.6371 10.9495 32.6899 9.61781Z" fill="white"/>
</svg>
