<svg width="46" height="66" viewBox="0 0 46 66" fill="none" xmlns="http://www.w3.org/2000/svg">
<path fill-rule="evenodd" clip-rule="evenodd" d="M5.63388 22.664C2.24221 20.4646 0 16.6569 0 12.3278C0 5.51936 5.54623 0 12.3878 0H33.6122C40.4538 0 46 5.51936 46 12.3278C46 16.6569 43.7579 20.4646 40.3661 22.664C43.7579 24.8633 46 28.6712 46 33.0001C46 39.8086 40.4538 45.3279 33.6122 45.3279H33.3864C30.1523 45.3279 27.2076 44.0946 25.0015 42.0748V53.5598C25.0015 60.4443 19.3339 66 12.444 66C5.61642 66 0 60.4946 0 53.6722C0 49.3433 2.2421 45.5355 5.63366 43.3362C2.2421 41.1368 0 37.329 0 33.0001C0 28.6712 2.24221 24.8633 5.63388 22.664ZM25.0015 33.0001C25.0015 37.6086 28.7556 41.3444 33.3864 41.3444H33.6122C38.2431 41.3444 41.9971 37.6086 41.9971 33.0001C41.9971 28.3917 38.2431 24.6558 33.6122 24.6558H33.3864C28.7556 24.6558 25.0015 28.3917 25.0015 33.0001ZM20.9985 24.6558H12.3878C7.75694 24.6558 4.00293 28.3917 4.00293 33.0001C4.00293 37.5992 7.7418 41.3292 12.3596 41.3444H12.3728H20.9985V24.6558ZM12.3878 45.3279C12.3784 45.3279 12.369 45.3279 12.3596 45.3279C7.7418 45.343 4.00293 49.0731 4.00293 53.6722C4.00293 58.2667 7.79905 62.0165 12.444 62.0165C17.1512 62.0165 20.9985 58.2164 20.9985 53.5598V45.3279H12.3878ZM20.9985 20.6721H12.3878C7.75694 20.6721 4.00293 16.9363 4.00293 12.3278C4.00293 7.71936 7.75694 3.98354 12.3878 3.98354H20.9985V20.6721ZM33.6122 20.6721H25.0015V3.98354H33.6122C38.2431 3.98354 41.9971 7.71936 41.9971 12.3278C41.9971 16.9363 38.2431 20.6721 33.6122 20.6721Z" fill="white"/>
</svg>
