<svg width="55" height="58" viewBox="0 0 55 58" fill="none" xmlns="http://www.w3.org/2000/svg">
<path fill-rule="evenodd" clip-rule="evenodd" d="M16.6413 56.2118C14.1156 54.4691 11.7226 52.5397 9.48214 50.4396C6.47825 47.6906 4.03952 44.3765 2.30388 40.6846C3.64281 44.6914 5.91337 48.3192 8.92702 51.267C11.2969 53.2132 13.886 54.8729 16.6413 56.2118ZM45.6606 8.45665C43.3061 4.85865 38.7886 2.68447 34.4433 1.35687C21.5608 -3.74189 3.20355 5.99385 0.485385 22.7716C0.213555 24.036 0.0787743 25.3262 0.0834024 26.6198C0.555098 21.7445 2.24948 17.0691 5.00803 13.0311C7.76657 8.99312 11.4991 5.7245 15.8564 3.53105C19.7689 1.56812 24.1244 0.668535 28.4899 0.92169C32.8555 1.17485 37.0791 2.57193 40.7411 4.9741C41.0856 5.24347 41.4302 5.55132 41.7556 5.83993C40.5723 5.21713 39.3359 4.702 38.0612 4.30068C33.3094 1.97264 27.9232 1.2959 22.7476 2.37662C12.1812 4.05055 2.61015 13.7286 0.963936 25.7732C0.829353 26.5632 0.733528 27.3595 0.676806 28.159C0.486792 27.958 0.342232 27.7182 0.253027 27.4558C0.163822 27.1935 0.132079 26.9148 0.15997 26.639C0.0106062 27.4573 -0.0344206 28.2913 0.0259768 29.121C-0.0383471 33.0959 0.765354 37.0366 2.38045 40.6654C1.77184 38.7898 1.36122 36.8551 1.15536 34.8932C1.87732 38.6686 3.50709 42.2091 5.90258 45.2062C7.47223 46.8224 9.23329 50.4011 11.3772 51.5556C19.4743 58.0012 31.7826 60.2138 40.0903 55.4037C41.2378 55.144 42.3453 54.7298 43.3827 54.1723C42.0619 54.6148 40.5688 54.9227 39.382 55.346H38.98L38.2909 55.7308C32.1654 56.5004 19.6274 57.8665 11.894 51.3247C9.78168 49.6923 7.92916 47.7459 6.40027 45.5525C7.4397 46.1707 8.41449 46.8927 9.30986 47.7075C13.1383 51.5556 18.5555 55.1536 23.7812 55.5769C21.436 54.5852 19.176 53.4011 17.0241 52.0366C15.8564 51.4786 13.9614 51.1708 13.1957 50.1125C8.31448 45.9373 4.16065 41.6467 3.41412 35.2203C3.29926 34.5854 3.70125 34.1044 3.41412 33.5271C4.65835 40.6462 9.15672 45.8988 14.6505 50.0933C15.3712 50.8178 16.1669 51.4629 17.0241 52.0173C17.8997 52.3174 18.7563 52.6708 19.5891 53.0756C27.8585 56.1926 29.3324 52.787 36.817 52.6715C32.8347 53.8215 28.7803 54.7021 24.6809 55.3075C31.554 55.8733 38.42 54.1344 44.2058 50.3627C49.7761 46.5145 48.6467 46.3606 51.5372 41.4735C51.8899 40.7046 52.1286 39.8878 52.2454 39.0492C54.872 33.9789 55.6515 28.1449 54.4489 22.5577C53.2463 16.9706 50.1374 11.9822 45.6606 8.45665ZM4.83063 32.9884C4.24913 29.8083 4.24913 26.5482 4.83063 23.3681C4.76261 23.8331 4.73061 24.3027 4.73492 24.7727C4.48183 27.8155 4.59753 30.8779 5.07947 33.8927L4.7732 33.0076C4.90719 33.6233 5.07947 34.239 5.27089 34.9317C5.57717 36.3747 5.8643 36.8558 5.76859 36.4132C6.98676 39.5109 8.81277 42.3304 11.1378 44.7037C13.4629 47.0771 16.2394 48.9558 19.302 50.228C13.6551 49.5353 6.17057 41.8391 4.83063 32.9884ZM21.3311 5.01258C16.2048 6.0665 11.6569 9.01115 8.58246 13.2668C10.5564 10.7578 13.2183 8.88491 16.2393 7.87943L15.531 8.41817C13.3944 9.65706 11.4419 11.1921 9.73099 12.9782C9.25244 13.5939 9.04187 14.325 8.60161 14.9022L7.68279 16.3068C6.54473 17.4885 5.61287 18.8544 4.92634 20.3473C3.17602 24.4025 2.42063 28.8209 2.72377 33.2307C3.02691 37.6405 4.37971 41.9126 6.66826 45.6872C-1.94565 33.6618 1.46163 16.5377 11.6452 8.9569C15.6462 5.78502 20.5296 3.9426 25.6189 3.68498C24.1503 3.98723 22.7143 4.43184 21.3311 5.01258ZM36.9701 52.4214C36.1661 52.5561 37.4104 52.2097 41.0091 50.074C41.3153 49.9009 41.6599 49.67 42.0045 49.4391C43.4164 48.6897 44.7502 47.8002 45.986 46.7839C42.4256 50.2472 38.0612 52.4406 36.9701 52.4214Z" fill="white"/>
</svg>
