<svg width="80" height="54" viewBox="0 0 80 54" fill="none" xmlns="http://www.w3.org/2000/svg">
<mask id="mask0_4127_281" style="mask-type:luminance" maskUnits="userSpaceOnUse" x="0" y="0" width="80" height="54">
<path d="M57.4152 0C50.8555 0 45.7276 4.94068 41.0857 11.2169C34.7068 3.09485 29.3721 0 22.9881 0C9.97251 0 0 16.9386 0 34.8671C0 46.0862 5.42763 53.1623 14.5188 53.1623C21.062 53.1623 25.7679 50.0775 34.1338 35.4537C34.1338 35.4537 37.6211 29.2953 40.0202 25.0531C40.8609 26.4105 41.7463 27.8731 42.6765 29.4409L46.5995 36.0403C54.2414 48.8284 58.4992 53.1623 66.2145 53.1623C75.0711 53.1623 80 45.9894 80 34.5371C80 15.7654 69.8027 0 57.4152 0ZM27.7544 31.4941C20.9716 42.1265 18.6251 44.5096 14.8488 44.5096C10.9624 44.5096 8.65261 41.0978 8.65261 35.0138C8.65261 21.9982 15.1421 8.68928 22.8781 8.68928C27.0673 8.68928 30.5682 11.1087 35.9306 18.7855C30.8388 26.5956 27.7544 31.4941 27.7544 31.4941ZM53.3535 30.1555L48.663 22.3328C47.3936 20.2684 46.1738 18.3682 45.0034 16.6322C49.2308 10.1073 52.7179 6.85611 56.8653 6.85611C65.4812 6.85611 72.374 19.5417 72.374 35.1238C72.374 41.0633 70.4286 44.5097 66.3978 44.5097C62.5345 44.5096 60.6889 41.9582 53.3535 30.1555Z" fill="white"/>
</mask>
<g mask="url(#mask0_4127_281)">
<mask id="mask1_4127_281" style="mask-type:luminance" maskUnits="userSpaceOnUse" x="-1" y="-1" width="82" height="55">
<path d="M80.2582 -0.265625H-0.273438V53.4282H80.2582V-0.265625Z" fill="white"/>
</mask>
<g mask="url(#mask1_4127_281)">
<mask id="mask2_4127_281" style="mask-type:luminance" maskUnits="userSpaceOnUse" x="-1" y="-1" width="82" height="55">
<path d="M80.2582 -0.265625H-0.273438V53.4282H80.2582V-0.265625Z" fill="white"/>
</mask>
<g mask="url(#mask2_4127_281)">
<rect x="-0.289062" y="-0.273438" width="80.5599" height="53.7151" fill="white"/>
</g>
</g>
</g>
<path d="M48.6599 22.3328C38.4908 5.79407 31.7202 0 22.985 0L22.875 8.68928C28.5945 8.68928 33.0308 13.1989 42.6734 29.4409L43.2612 30.4297L48.6599 22.3328Z" fill="white"/>
</svg>
