<svg width="151" height="128" viewBox="0 0 151 128" fill="none" xmlns="http://www.w3.org/2000/svg">
<path d="M38.4646 107.96C32.3232 102.788 31.3535 95.3535 28.7677 88.8889C27.1515 84.6869 24.2424 81.1313 21.3333 77.5758C25.2121 88.5657 22.9495 96.3232 32.3232 104.081C30.7071 103.434 29.0909 102.141 27.798 101.172C20.3636 95.0303 9.37374 94.0606 4.84848 84.0404C6.14141 91.4747 11.9596 97.9394 18.101 102.141C24.2424 106.02 32 105.697 38.4646 107.96ZM54.6263 111.838C55.596 111.515 56.8889 111.515 58.1818 111.192C53.6566 110.545 49.4545 108.929 46.2222 106.02C41.3737 101.495 37.1717 96.9697 32 93.4141C37.4949 104.404 39.4343 108.929 48.4848 110.869C48.4848 110.869 45.899 110.545 44.6061 110.222C34.9091 108.283 23.2727 110.869 16.1616 102.788C19.0707 107.96 24.5657 112.162 29.7374 114.101C38.1414 116.687 46.8687 113.778 54.6263 111.838ZM67.5555 111.192C52.0404 111.192 43.9596 124.768 28.7677 115.717C36.202 124.768 48.1616 125.414 57.8586 119.273C61.7374 116.687 65.2929 113.131 70.1414 113.131C77.5758 113.131 85.6566 120.889 92.4444 128C93.7374 127.03 94.7071 126.061 95.6768 125.091C88.5656 118.303 78.2222 111.192 67.5555 111.192ZM23.9192 96C23.9192 96 21.9798 92.4444 21.3333 90.1818C19.0707 81.4545 20.3636 70.7879 16.4848 62.3838C17.1313 67.2323 15.1919 71.4343 14.8687 75.9596C14.2222 82.101 16.4848 86.303 18.101 89.2121C18.101 89.2121 15.8384 86.303 14.8687 84.6869C10.3434 77.5758 0.969697 72.7273 0.323232 64C-0.969697 83.0707 12.2828 88.2424 23.9192 96ZM19.3939 39.4343C20.6869 36.8485 21.3333 33.6162 21.9798 30.7071C21.3333 32 20.6869 33.2929 19.7172 34.2626C13.5758 39.4343 10.0202 42.3434 8.40404 50.4242L9.0505 43.3131C9.69697 36.202 5.81818 28.4444 10.0202 22.303C5.81818 26.8283 3.55556 32.6465 3.55556 38.4646C3.55556 46.2222 8.08081 51.7172 8.40404 59.1515C9.69697 51.3939 16.1616 45.899 19.3939 39.4343ZM17.1313 25.2121C20.0404 22.6263 23.596 20.3636 26.1818 17.1313C29.0909 13.2525 31.6768 8.72727 35.5556 5.17172C30.3838 7.43434 24.5657 9.37374 21.0101 14.8687C19.0707 18.101 18.7475 21.9798 17.1313 25.2121ZM10.6667 40.7273C11.9596 38.1414 14.2222 35.5556 16.4848 33.6162C22.303 29.4141 28.1212 23.9192 28.4444 16.8081C25.2121 24.5657 15.1919 25.8586 12.9293 33.9394C12.9293 33.9394 14.2222 29.0909 14.5455 28.1212C16.1616 22.6263 15.8384 16.1616 21.3333 12.6061C10.6667 14.8687 10.0202 26.5051 10.6667 35.2323C10.6667 37.1717 10.9899 38.7879 10.6667 40.7273ZM12.2828 78.2222C12.2828 78.2222 11.6364 72.0808 12.6061 69.4949C15.1919 61.7374 17.7778 53.3333 17.4545 45.2525C14.8687 54.9495 6.78788 58.1818 10.3434 71.4343C9.0505 68.8485 8.72727 65.9394 7.75758 63.3535C5.81818 56.2424 0.323232 50.101 1.93939 41.697C-0.646465 49.1313 -0.646465 54.9495 1.93939 62.7071C3.55556 68.5253 9.37374 72.7273 12.2828 78.2222Z" fill="white"/>
<path d="M112.162 107.96C118.303 102.788 119.273 95.3535 121.859 88.8889C123.475 84.6869 126.384 81.1313 129.293 77.5758C125.414 88.5657 127.677 96.3232 118.303 104.081C119.919 103.434 121.535 102.141 122.828 101.172C130.263 95.0303 141.253 94.0606 145.778 84.0404C144.485 91.4747 138.667 97.9394 132.525 102.141C126.384 106.02 118.626 105.697 112.162 107.96ZM96 111.838C95.0303 111.515 93.7374 111.515 92.4444 111.192C96.9697 110.545 101.172 108.929 104.404 106.02C109.253 101.495 113.455 96.9697 118.626 93.4141C113.131 104.404 111.192 108.929 102.141 110.869C102.141 110.869 104.727 110.545 106.02 110.222C115.717 108.283 127.354 110.869 134.465 102.788C131.556 107.96 126.061 112.162 120.889 114.101C112.485 116.687 103.758 113.778 96 111.838ZM83.0707 111.192C98.5858 111.192 106.667 124.768 121.859 115.717C114.424 124.768 102.465 125.414 92.7677 119.273C88.8889 116.687 85.3333 113.131 80.4848 113.131C73.0505 113.131 64.9697 120.889 58.1818 128C56.8889 127.03 55.9192 126.061 54.9495 125.091C62.0606 118.303 72.404 111.192 83.0707 111.192ZM126.707 96C126.707 96 128.646 92.4444 129.293 90.1818C131.556 81.4545 130.263 70.7879 134.141 62.3838C133.495 67.2323 135.434 71.4343 135.758 75.9596C136.404 82.101 134.141 86.303 132.525 89.2121C132.525 89.2121 134.788 86.303 135.758 84.6869C140.283 77.5758 149.657 72.7273 150.303 64C151.596 83.0707 138.343 88.2424 126.707 96ZM131.232 39.4343C129.939 36.8485 129.293 33.6162 128.646 30.7071C129.293 32 129.939 33.2929 130.909 34.2626C137.05 39.4343 140.606 42.3434 142.222 50.4242L141.576 43.3131C140.929 36.202 144.808 28.4444 140.606 22.303C144.808 26.8283 147.071 32.6465 147.071 38.4646C147.071 46.2222 142.545 51.7172 142.222 59.1515C140.929 51.3939 134.465 45.899 131.232 39.4343ZM133.495 25.2121C130.586 22.6263 127.03 20.3636 124.444 17.1313C121.535 13.2525 118.949 8.72727 115.071 5.17172C120.242 7.43434 126.061 9.37374 129.616 14.8687C131.556 18.101 131.879 21.9798 133.495 25.2121ZM139.96 40.7273C138.667 38.1414 136.404 35.5556 134.141 33.6162C128.323 29.4141 122.505 23.9192 122.182 16.8081C125.414 24.5657 135.434 25.8586 137.697 33.9394C137.697 33.9394 136.404 29.0909 136.081 28.1212C134.465 22.6263 134.788 16.1616 129.293 12.6061C139.96 14.8687 140.606 26.5051 139.96 35.2323C139.96 37.1717 139.636 38.7879 139.96 40.7273ZM138.343 78.2222C138.343 78.2222 138.99 72.0808 138.02 69.4949C135.434 61.7374 132.848 53.3333 133.172 45.2525C135.758 54.9495 143.838 58.1818 140.283 71.4343C141.576 68.8485 141.899 65.9394 142.869 63.3535C144.808 56.2424 150.303 50.101 148.687 41.697C151.273 49.1313 151.273 54.9495 148.687 62.7071C147.071 68.5253 141.253 72.7273 138.343 78.2222Z" fill="white"/>
<path d="M127.354 53.3333C127.354 24.5922 104.054 1.29293 75.3131 1.29293C46.572 1.29293 23.2727 24.5922 23.2727 53.3333C23.2727 82.0745 46.572 105.374 75.3131 105.374C104.054 105.374 127.354 82.0745 127.354 53.3333ZM128.646 53.3333C128.646 82.7885 104.768 106.667 75.3131 106.667C45.8579 106.667 21.9798 82.7885 21.9798 53.3333C21.9798 23.8781 45.8579 0 75.3131 0C104.768 0 128.646 23.8781 128.646 53.3333Z" fill="white"/>
<path d="M116.364 53.3333C116.364 30.6618 97.9847 12.2828 75.3131 12.2828C52.6416 12.2828 34.2626 30.6618 34.2626 53.3333C34.2626 76.0049 52.6416 94.3838 75.3131 94.3838C97.9847 94.3838 116.364 76.0049 116.364 53.3333ZM117.657 53.3333C117.657 76.719 98.6988 95.6768 75.3131 95.6768C51.9275 95.6768 32.9697 76.719 32.9697 53.3333C32.9697 29.9477 51.9275 10.9899 75.3131 10.9899C98.6988 10.9899 117.657 29.9477 117.657 53.3333Z" fill="white"/>
<path d="M106.343 53.3333C106.343 36.1958 92.4507 22.303 75.3131 22.303C58.1756 22.303 44.2828 36.1958 44.2828 53.3333C44.2828 70.4709 58.1756 84.3636 75.3131 84.3636C92.4507 84.3636 106.343 70.4709 106.343 53.3333ZM107.636 53.3333C107.636 71.185 93.1647 85.6566 75.3131 85.6566C57.4615 85.6566 42.9899 71.185 42.9899 53.3333C42.9899 35.4817 57.4615 21.0101 75.3131 21.0101C93.1647 21.0101 107.636 35.4817 107.636 53.3333Z" fill="white"/>
<path d="M95.3535 53.3333C95.3535 42.2653 86.3811 33.2929 75.3131 33.2929C64.2451 33.2929 55.2727 42.2653 55.2727 53.3333C55.2727 64.4013 64.2451 73.3737 75.3131 73.3737C86.3811 73.3737 95.3535 64.4013 95.3535 53.3333ZM96.6465 53.3333C96.6465 65.1154 87.0952 74.6667 75.3131 74.6667C63.531 74.6667 53.9798 65.1154 53.9798 53.3333C53.9798 41.5513 63.531 32 75.3131 32C87.0952 32 96.6465 41.5513 96.6465 53.3333Z" fill="white"/>
<path d="M85.3333 53.3333C85.3333 47.7993 80.8471 43.3131 75.3131 43.3131C69.7791 43.3131 65.2929 47.7993 65.2929 53.3333C65.2929 58.8673 69.7791 63.3535 75.3131 63.3535C80.8471 63.3535 85.3333 58.8673 85.3333 53.3333ZM86.6263 53.3333C86.6263 59.5814 81.5612 64.6465 75.3131 64.6465C69.0651 64.6465 64 59.5814 64 53.3333C64 47.0853 69.0651 42.0202 75.3131 42.0202C81.5612 42.0202 86.6263 47.0853 86.6263 53.3333Z" fill="white"/>
<path d="M75.9596 64V106.02H74.6667V64H75.9596ZM68.3359 61.2247L38.5985 90.9621L37.6843 90.048L67.4217 60.3106L68.3359 61.2247ZM112.942 90.048L112.028 90.9621L82.2904 61.2247L83.2045 60.3106L112.942 90.048ZM64.6465 52.6869V53.9798H22.6263V52.6869H64.6465ZM128 52.6869V53.9798H85.9798V52.6869H128ZM68.3359 45.4419L67.4217 46.3561L37.6843 16.6187L38.5985 15.7045L68.3359 45.4419ZM112.942 16.6187L83.2045 46.3561L82.2904 45.4419L112.028 15.7045L112.942 16.6187ZM75.9596 0.646465V42.6667H74.6667V0.646465H75.9596Z" fill="white"/>
<path d="M72.7596 66.3273C72.8889 66.0687 73.1475 65.0343 73.4707 65.3576C73.7939 65.6808 73.9879 65.3576 73.9879 65.3576C73.9879 65.3576 74.1495 65.5192 74.0525 65.8424C73.9879 66.1657 73.8909 66.4889 73.697 66.5535C73.503 66.5859 73.3414 66.7151 73.0828 66.7475C72.8889 66.7798 72.7596 66.3273 72.7596 66.3273ZM75.4101 65.9071C75.4747 65.8424 75.5717 66.1657 75.7333 66.101C75.8949 66.0687 75.9596 66.3919 75.798 66.3919C75.6364 66.3919 75.6364 66.5859 75.6364 66.6828C75.6364 66.7798 75.6364 66.9737 75.5071 67.103C75.3778 67.2323 75.2808 67.1353 75.1192 67.0707C74.9576 66.9737 74.8929 66.9737 74.6667 66.9737C74.4727 66.9737 74.6343 67.297 74.6343 67.297C74.6343 67.297 73.7939 67.2646 73.9555 67.1353C74.1172 67.0061 74.2788 66.9737 74.1495 66.8768C74.0202 66.7798 74.1495 66.7151 74.1495 66.5535C74.1495 66.3919 74.5374 66.4566 74.4404 66.3596C74.3111 66.2303 74.4404 65.7778 74.6343 66.0364L74.7636 65.7455C74.6343 65.6162 74.7313 65.5838 74.4727 65.4869C74.2465 65.3899 74.4404 64.905 74.4404 64.905L74.4727 64.5818C74.5374 64.1616 75.3454 64.1293 75.4101 64.4848C75.4424 64.8404 75.4101 65.099 75.4101 65.099L75.6364 65.196C75.6364 65.196 75.604 65.4545 75.4101 65.4545C75.2162 65.4545 75.4101 65.5838 75.2808 65.7131L75.4101 65.9071ZM105.18 46.2545C104.954 46.4808 104.469 46.5778 104.469 46.5778L104.307 47.1919L104.048 47.4182C104.048 47.4182 104.113 47.5798 104.048 47.9677C103.984 48.3556 103.499 48.5818 103.499 48.5818L103.273 48.8404C103.273 48.8404 101.98 48.905 101.818 48.8404C101.333 48.6141 101.657 47.9677 101.98 48.0323C102.303 48.097 101.915 47.0949 101.915 47.0949L102.335 47.0303C102.335 47.0303 102.4 46.0606 102.562 46.0606C102.723 46.0606 102.497 45.7374 102.303 45.5758C102.077 45.4141 101.818 44.8646 101.592 44.9293C101.366 44.9939 100.525 44.9293 100.525 44.9293L100.364 45.2525L99.7818 45.3495C99.7818 45.3495 99.8465 45.7697 99.7172 45.899C99.3939 46.2869 98.1657 47.0949 98.6828 45.7374L98.8444 45.4141V44.9293L97.8747 44.8646C97.8747 44.8646 97.3899 44.703 97.3899 44.4768C97.3899 44.2505 97.3252 43.9919 97.3252 43.9919L96.1939 42.7313L94.8364 42.5697L94.7394 42.3111L93.9313 42.2141C92.9616 41.7293 92.0889 42.1495 92.2505 42.9899C92.4121 43.798 92.6707 44.1212 92.1535 44.1212C91.604 44.1212 91.5071 43.701 91.5071 43.701C91.5071 43.701 91.0869 43.5394 91.0869 43.7657C91.0869 43.9919 90.9252 44.4121 91.0869 44.6384C91.2485 44.8646 90.8606 45.1879 90.699 45.0263C90.5374 44.8646 90.1172 44.3798 90.2141 44.2182C90.3111 44.0566 89.4707 43.0222 90.3111 42.8606C91.1838 42.699 90.2465 42.2141 90.5697 42.0848L90.9899 41.8586H91.4101L91.6687 41.6323L90.9576 41.5353L90.5374 41.4707L89.7293 41.4061C88.9212 41.9556 88.7596 42.602 88.7596 42.602C88.3394 43.4101 87.305 42.2788 87.6929 41.8263C88.0808 41.3737 86.497 41.7616 86.2384 41.9879C85.9798 42.2141 85.1717 42.0848 85.1717 42.0848C85.0101 42.5697 84.2667 42.0202 84.4606 41.697C84.6869 41.3737 84.6869 41.1475 84.6869 41.1475L84.4283 41.0828L84.105 41.697C83.3616 41.697 83.1353 42.1172 83.297 42.4081C83.4586 42.6667 83.0707 42.3434 82.9737 42.7313C82.8768 43.1192 83.0384 43.1192 83.3616 43.2808C83.6848 43.4424 83.2 43.4424 83.4263 43.701C83.6525 43.9596 84.299 43.701 83.9111 44.0889C83.5232 44.4768 82.7798 44.3151 82.7798 44.3151C82.7151 44.8 81.7131 44.703 81.5838 44.5414C81.4869 44.3798 80.6788 43.4101 80.6788 43.4101L79.6444 43.3455C79.5475 42.5697 80.1293 42.9576 80.3556 42.3758C80.5818 41.7616 80.6788 40.7919 80.6788 40.7919C80.6788 40.7919 79.8061 40.7273 79.7737 41.0182C79.7091 41.2768 79.1919 41.4707 79.1919 41.4707C79.1919 41.4707 78.7717 41.6323 78.9333 41.8586C79.0949 42.0848 78.6101 42.1818 78.6101 42.1818C78.6101 42.1818 78.7071 42.5374 78.5454 42.6667C78.1252 43.1192 77.0263 42.7313 76.8646 42.5697L76.2182 42.3111L75.5717 41.8909L74.8283 42.2141L74.602 42.4404H73.7939L73.7293 43.0869L75.1838 43.2485L75.2808 44.6061L74.699 44.4121H74.3111L74.1495 44.0889L73.8263 44.0242V45.2202L74.1495 45.4788L74.4081 45.7374L74.9576 45.802L75.0545 46.4485L76.4121 46.5131L76.5737 46.7717L77.3818 46.8364L78.9333 48.4202L78.8364 48.905L78.5778 49.0667C78.6747 49.4545 77.8667 49.2283 77.8667 49.2283V49.5515L78.2545 49.6162L78.6424 49.8424L79.1919 48.905C79.7737 48.5172 80.0646 49.0667 80.097 49.3899C80.1616 49.7131 79.8384 49.6485 79.8384 49.6485V50.4242L80.1616 50.5212C80.7111 51.1677 79.9353 51.5556 79.9353 51.5556L79.7737 52.105C79.6121 52.5899 79.0303 52.4929 79.0303 52.4929L78.804 52.8162L78.1576 52.9778L79.4182 53.1394C79.5475 52.6869 79.8707 52.5899 80.0323 52.8162C80.1939 53.0424 80.1939 53.4303 80.1939 53.4303L80.5172 53.4949L80.4525 54.1091L80.7758 54.2061V55.9515L81.1636 56.3717C81.8101 56.1131 81.8101 56.5333 81.4869 56.7596C81.1636 56.9859 81.3899 57.9556 81.3899 57.9556L81.1313 58.2141V58.6667L80.8081 58.8929V59.5071C80.2586 59.2485 79.6121 59.3455 79.4505 59.5071C78.9657 59.1838 77.9313 59.2808 77.9313 59.5717C78.2545 59.9919 77.5434 60.1212 77.5434 60.1212L77.1556 60.5414C77.4141 61.0909 76.897 61.1555 76.897 61.1555V62.1899L76.2505 62.804L76.3151 64.2263C76.3151 64.6141 77.1232 64.6465 77.2848 64.4525C77.4465 64.2263 78.0929 64.905 78.0929 64.905H78.5778L78.6747 63.9353L78.3515 63.7737V62.1899L78.901 61.5758C79.5475 61.3495 79.3212 62.998 79.3212 63.1596C79.3859 63.7737 79.6444 63.7091 79.903 63.5798C80.4525 63.3535 80 64.1939 79.5798 64.1293C79.1596 64.0646 79.4182 64.6788 79.4182 64.6788L79.6768 64.7758L79.1919 65.1636L78.7717 65.6485L78.2222 65.4869L77.5758 65.4222L77.3495 65.0343L76.9616 64.9697L76.897 65.7455L76.6384 66.0687L75.9919 66.7151C76.8646 66.7151 75.8949 67.3293 75.6687 67.3293C76.1535 67.4909 75.604 67.9758 74.3758 67.5879V67.9758L73.9555 68.0404L74.3434 68.4606L74.7636 68.5252L74.602 69.4626C74.602 70.1737 72.8242 69.6889 72.6626 69.5273L72.598 70.497L72.2747 70.5616L72.3394 71.2081L72.2747 72.1454L72.8566 72.0485V72.4364L74.3111 72.501L76.4121 70.2707L77.6404 70.0121C77.7374 69.4626 78.2869 70.1091 78.2869 70.1091C78.8364 70.0444 78.9333 70.4323 78.9333 70.4323L79.6444 70.5293C80.2263 70.6909 79.8707 70.7556 79.903 70.9818C79.9677 71.305 80.2263 71.2081 80.2263 71.2081L80.3232 70.497L80.6465 70.5616L80.3232 70.1737L79.7414 69.9151L79.0949 69.6566C78.6747 69.0424 79.1919 69.1717 79.6444 69.2364H80.3556C80.3556 69.2364 81.1636 70.3353 81.1636 70.5939C81.1636 70.8525 81.5515 70.9172 81.5515 70.9172L82.0364 70.8525L82.198 71.2404H82.6828L82.8444 71.5636H83.8141L83.8788 71.0788L82.9737 70.9172L82.9091 70.3677L82.2626 70.2061C82.0364 69.2687 82.4242 69.0101 82.6828 69.4303L83.0061 69.4949L82.9091 68.6869L83.297 68.5899L83.2 67.4586L82.8768 67.3616V66.9737L84.2343 67.0384C84.1374 66.3273 84.299 66.004 84.299 66.004H84.6869L84.7515 66.2626L86.4 66.4242L87.5636 65.099C87.499 65.002 87.6929 64.9374 87.5636 64.8081C87.402 64.6465 87.1757 64.8081 86.9172 64.6465C86.6586 64.4848 86.9172 63.5475 86.8525 63.3535C86.7879 63.1273 87.7576 62.804 87.596 63.2889C87.4343 63.7737 87.596 64 87.596 64C88.3071 63.3535 88.8889 64.0646 88.8242 64.2263C88.7596 64.3879 89.2121 64.5495 89.4707 64.3879C89.7293 64.2263 90.0525 64.8727 89.9556 65.196C89.8586 65.5192 88.8889 65.4545 88.8242 65.1313C88.7596 64.8081 88.598 64.905 88.501 65.0667C88.404 65.2283 87.9192 65.3252 87.6283 65.1636C87.5636 65.1313 87.5636 65.099 87.5313 65.0667L86.3677 66.3919H86.4323C87.0788 66.7798 86.7556 67.2646 86.5293 67.3616C86.303 67.4586 85.9475 67.4586 85.9475 67.4586L85.8505 67.6848L84.4606 67.7818L84.3636 68.3313C83.6525 68.2343 83.3939 68.9778 83.5555 69.3657C83.7172 69.7535 83.5555 70.0768 83.5555 70.0768L84.1374 70.3354L84.8808 70.1091C84.9778 69.5596 85.4626 69.4626 85.9151 69.1394C86.3354 68.8162 87.0465 69.7535 86.8202 70.1737C86.5939 70.5939 86.5939 70.7879 86.5939 70.7879L86.6586 71.2727L86.1091 71.499L85.6889 71.7252L85.6242 71.9838H84.1697L83.9111 72.2424L83.2 72.3071L82.9737 72.6303L82.4889 72.6949C82.4889 72.6949 81.6808 73.0828 82.004 73.503C82.3273 73.9555 80.6465 73.8909 80.2909 73.2768C80.1939 73.8263 79.5798 73.3414 79.5798 73.3414L78.998 73.1798L78.9333 72.3717C78.8364 71.8222 77.802 71.8222 77.8667 72.2101C77.9313 72.598 75.9273 72.3717 75.9273 72.3717L75.2808 72.6949L74.699 73.0505L74.6343 73.3091L73.6646 73.4061L73.2444 73.6323L73.0828 73.3091H72.6626L72.2424 73.9232C71.1111 73.9879 70.0444 74.6343 70.1414 74.8929C70.2384 75.1515 69.7212 75.4424 69.7212 75.4424L69.2364 75.604L68.9131 76.0889L68.2667 76.3151L68.1697 77.4465L67.8465 77.6727V78.1576L67.4586 78.2545V78.5131L66.9091 78.5778L67.2323 79.3859L67.6525 79.6121C68.396 79.7091 68.0727 80.6465 68.0727 80.6465L68.4929 80.7111L68.7192 81.3252L69.1394 82.198C69.301 82.8444 69.7859 82.6828 70.0121 82.6505C70.2384 82.5859 70.4323 83.297 70.4323 83.297L72.5656 83.3616C72.5656 83.3616 72.4687 83.5879 72.8242 83.6848C73.2121 83.7818 75.6687 83.9111 75.7657 83.7495C75.6687 83.2646 77.1232 83.1353 77.705 83.5879C78.2869 84.0081 79.0949 83.7495 79.0949 83.7495L79.903 84.7192L80.4525 85.9151L81.3576 86.1737L82.004 86.3353L82.2303 87.2727L82.7151 87.3374L82.8768 87.9515C83.4586 88.3717 82.7151 89.3091 82.7151 89.3091V90.505L83.1353 90.7313L83.0707 91.1838L83.7818 91.8949L84.5899 91.9596L86.6263 94.1252L88.2424 94.6101L88.501 95.4828L88.9212 95.4182L89.2444 95.1596L90.5374 95.0949L91.1838 94.4808L91.8949 94.3838L97.8747 89.3091L97.3252 88.9859V87.7899C98.2949 87.0788 98.3596 85.8182 97.4222 85.7212C96.7434 85.6242 97.0343 84.9131 97.6808 84.7838L98.0687 84.6222V84.1374L99.297 83.0061V82.1333L96.6141 79.903C95.4182 79.4828 96.6141 76.8646 97.4222 76.897C98.2303 76.9616 97.3576 72.8566 97.3576 72.8566L96.9374 72.6303L97.0343 71.305H96.4525L95.4828 72.5657L95.2242 73.4384C95.1273 74.5697 91.798 74.3758 91.6364 74.2141C91.4747 74.0525 90.3434 73.5677 90.3434 73.5677C90.3434 73.5677 89.4707 72.8566 89.3091 73.0828C89.1475 73.3091 88.404 72.8242 88.404 72.9859C88.404 73.1475 87.6929 72.598 87.6929 72.598L86.6263 72.2101L87.4343 72.0485L87.2727 71.402L88.6626 72.1131C88.8242 72.3394 89.5353 72.2747 89.5353 72.2747L89.7616 72.5333C89.7616 72.5333 90.1818 72.4687 90.4727 72.7919C90.7313 73.1151 92.1535 72.8566 92.1535 72.8566L92.5414 73.1798L93.1232 73.4061L94.804 73.4707L94.8687 72.4364L95.1919 72.1131L95.1273 71.4667L95.5151 71.1434V70.5939L95.8384 70.497L95.903 69.301L96.1616 69.2364V66.6182L95.3535 65.8424C95.2889 66.101 94.4485 66.101 94.4485 66.101C94.4485 66.101 94.2222 66.4889 94.0606 66.4889C93.899 66.4889 94.2869 66.9737 94.1576 67.297C94.0606 67.6202 93.6081 67.6202 93.6081 67.6202L92.8 67.8465L92.5737 68.105H91.701L91.604 67.3939L92.5737 67.1353L93.1232 66.8768L93.3818 66.3273C93.4465 65.7778 94.0929 65.8424 94.0929 65.8424C94.0929 65.8424 95.3212 64.8081 95.3859 64.3232C95.4505 63.8384 95.8707 62.4808 96.6141 62.4808H98.004C98.5535 62.2545 98.3919 61.5434 98.3919 61.5434L99.103 61.4465L99.2 61.8343C99.2 61.8343 100.17 61.9313 100.267 61.7697C100.364 61.6081 100.59 61.2202 100.848 61.3818C101.107 61.5434 101.98 60.9939 101.98 60.9939C102.044 60.6061 103.37 60.7677 103.37 60.7677L103.531 60.2828C103.531 60.2828 102.626 59.0222 102.465 59.0222C102.303 59.0222 101.43 58.2465 101.333 58.5374C100.461 58.3111 100.525 57.1151 100.525 57.1151L100.202 56.3394C100.202 55.8869 99.3939 54.9818 99.2323 55.0788C98.4242 54.4646 99.0061 53.7859 99.2323 53.7212C99.4586 53.6566 99.9758 52.9131 99.9758 52.9131L100.234 52.1374L101.139 51.8788L101.236 51.1677L100.752 51.103C100.752 51.103 101.301 50.1333 101.56 50.1333C101.818 50.1333 103.596 50.1333 103.758 50.0364C103.919 49.9394 104.242 49.0667 104.242 48.905C104.242 48.7434 104.663 48.6788 104.824 48.6465C104.986 48.5818 105.374 48.1616 105.471 47.9353C105.762 47.3859 105.406 46.0283 105.18 46.2545ZM120.081 63.6768C120.048 63.5798 120.016 63.4828 119.919 63.4505C119.693 63.3535 119.273 63.5151 119.079 63.6444L119.273 63.903C119.467 63.7737 119.758 63.7091 119.79 63.7414V63.7091L120.081 63.6768ZM121.471 70.1737L121.147 70.1414C121.115 70.4 121.18 70.7232 121.438 70.7555L121.503 70.4323C121.503 70.4323 121.471 70.303 121.471 70.1737ZM122.667 68.8808C122.764 69.204 122.861 69.5273 122.861 69.5596L123.152 69.4303C123.152 69.4303 123.022 69.1071 122.958 68.7838L122.667 68.8808ZM123.378 68.6222V68.5576C123.378 68.4606 123.345 68.3313 123.281 68.202L122.99 68.3636C123.022 68.4283 123.022 68.5252 123.055 68.5899C123.055 68.6869 123.087 68.7838 123.152 68.8485C123.216 68.8808 123.281 68.9131 123.378 68.8808L123.313 68.5576C123.313 68.5899 123.345 68.5899 123.378 68.6222ZM120.63 70.9495C120.857 70.8202 121.147 70.5293 121.115 71.1434C121.083 71.7576 120.824 71.5636 120.63 71.7576C120.436 71.9515 120.307 71.1434 120.63 70.9495ZM107.669 75.1515L107.701 74.6667L108.218 74.7313L108.186 75.1838L107.669 75.1515ZM107.701 76.2182C107.636 75.9273 107.313 75.8303 107.281 75.8303L107.184 76.1535C107.216 76.1535 107.248 76.1859 107.281 76.2182L107.345 76.5091C107.313 76.5414 107.281 76.5737 107.281 76.6061L107.507 76.8323C107.669 76.5737 107.733 76.4121 107.701 76.2182ZM67.5232 86.303L67.2 86.5939L67.0384 86.7232L67.2 86.8525L67.5879 87.1111L67.7818 86.8525L67.5555 86.6909L67.7172 86.5616L67.5232 86.303ZM71.3374 90.2141L71.2081 90.505L71.5313 90.6667L71.4343 90.796L71.6606 91.0222L72.0808 90.602L71.8869 90.4727L71.3374 90.2141ZM56.501 20.0727L56.8242 20.396L56.598 20.6222L56.2747 20.299L56.501 20.0727ZM66.2626 30.2545L66.5859 30.5131L66.3919 30.7717L66.0687 30.5131L66.2626 30.2545ZM65.0343 30.4808L65.099 31.0949H65.9071C66.2303 31.0949 65.6485 30.7071 65.6485 30.7071C65.6485 30.7071 65.002 30.7717 65.0343 30.4808ZM82.7475 15.2889L82.198 15.2242L82.1657 15.5475L82.6182 15.5798L82.9737 16.1293L83.2323 15.9354L82.8768 15.3535L82.8121 15.2889H82.7475ZM84.202 3.84646L84.0404 4.13737L84.4606 4.39596L84.5576 4.46061L84.6222 4.39596L85.2364 4.00808L85.0424 3.74949L84.5576 4.07273L84.202 3.84646ZM87.0788 5.39798L86.8202 5.10707L86.5939 5.36566L87.0788 5.8505L87.1758 5.75353L87.7252 5.30101L87.499 5.04242L87.0788 5.39798ZM69.2364 16.7434C69.204 16.5495 70.303 16.5172 70.4646 16.6788C70.6263 16.8404 70.5293 17.1313 71.0141 17.1313C71.499 17.1313 71.2727 17.4545 71.2404 17.6162C71.1758 17.7778 70.6586 17.7131 70.5939 17.5515C70.5293 17.3899 69.7212 17.3253 69.7212 17.3253C69.7212 17.3253 69.301 17.002 69.2364 16.7434ZM75.4101 16.1293C76.2505 16.3879 76.5414 16.1939 76.6061 15.9677C76.6707 15.7414 76.703 15.7091 77.0263 15.6444C77.3495 15.5798 76.9616 14.9333 76.6384 14.998C76.3151 15.0626 75.9919 14.901 75.9273 14.6101C75.8626 14.3515 75.3455 13.6404 75.2808 14.1899C75.2162 14.7394 74.8929 14.7394 74.9576 15.1273C75.0545 15.4828 75.2162 16.0646 75.4101 16.1293ZM80.7434 6.91717C80.6141 6.43232 79.9353 7.53131 80.6465 7.72525C81.3576 7.95151 82.0364 7.72525 82.0364 7.72525L82.198 7.40202L84.8808 7.46667C85.1071 7.2404 85.204 6.91717 85.204 6.91717C85.204 6.91717 85.8505 6.69091 86.1091 6.8202C86.3677 6.91717 86.1737 6.04444 85.8828 6.17374C85.6242 6.27071 85.0747 6.23838 85.0747 6.23838H84.105C84.0404 5.8505 83.2 6.01212 83.1353 6.23838C83.103 6.43232 82.7798 6.49697 82.7798 6.49697L81.5515 6.59394C81.4222 6.91717 80.8081 7.14343 80.7434 6.91717ZM80.8404 9.6L80.1293 8.88889V8.27475L79.903 8.04848L79.6768 7.27273L78.9657 7.04646L78.2545 7.30505L77.5111 7.7899L76.703 7.88687L76.2828 8.37172L77.996 8.53333L78.3192 9.08283L79.5475 9.1798L80.3556 9.98788C81.099 10.3111 81.2606 9.98788 80.8404 9.6ZM83.3293 14.8364L83.5555 14.3192L83.8465 14.4808L83.6202 14.9657L83.3293 14.8364ZM99.3939 14.2869C99.297 13.8667 100.461 13.4788 100.752 13.802C101.01 14.1253 101.786 14.1899 101.883 15.8061C101.915 16.3879 100.913 15.1919 100.913 15.1919L100.105 14.9333C99.6525 14.8364 99.4263 14.5778 99.3939 14.2869ZM93.7374 15.7091C93.5757 16.1939 93.5111 16.8404 93.2525 16.8404C92.9939 16.8404 93.0909 17.5515 93.0909 17.5515C93.0909 17.5515 93.802 17.5515 93.996 17.6162C94.2222 17.6808 94.2222 18.2303 94.2222 18.2303C95.0303 18.1657 95.3535 19.2646 95.2566 19.5556C95.1596 19.8141 95.5798 19.8141 95.5798 19.8141C95.5798 19.8141 95.5798 20.6869 95.4828 20.9131C95.3858 21.1394 96.1939 21.301 96.3879 21.6242C96.6141 21.9475 96.2909 23.0465 96.1293 23.1111C95.9677 23.1758 96.5495 23.3374 96.5172 23.596C96.4525 23.8545 96.6788 23.596 96.7434 24.0485C96.8081 24.4687 96.905 25.4061 96.905 25.4061L97.6485 25.4707C97.7454 24.7596 99.1353 24.7273 99.3616 24.8242C100.267 25.1475 100.978 26.5697 100.978 26.8929C100.978 27.2162 100.396 27.2808 100.396 27.2808L100.493 28.8646C101.398 29.1232 102.174 30.4485 102.044 30.6747C101.947 30.901 102.691 30.8364 102.691 30.8364C102.788 29.8667 103.725 30.1899 103.758 30.5131C103.822 30.8364 103.984 31.5475 103.984 31.5475L104.242 32.0323L104.63 32.4202L105.212 32.3556L105.374 32.6788L106.085 32.7758C106.085 32.7758 106.667 33.4222 106.731 33.5838C106.796 33.7455 107.604 33.6808 107.798 33.7455C108.024 33.8101 108.347 33.9717 108.38 34.2303C108.444 34.4889 108.768 34.9414 108.768 34.9414C108.768 34.9414 109.414 35.103 109.479 35.3293C109.543 35.5556 109.802 36.0404 109.802 36.0404L110.352 36.4929L110.416 36.9778L110.998 37.0424L111.16 37.6889L112.129 37.6242L112.679 37.2364C113.39 36.8485 113.875 36.3636 113.907 36.1374C113.972 35.9111 114.069 35.103 114.618 35.2646C115.168 35.4263 114.78 34.0687 114.78 34.0687C114.78 34.0687 114.036 33.5192 114.069 33.2606C114.133 33.002 113.325 32.4525 113.358 32.2263C113.422 32 112.646 31.5798 112.711 31.3535C112.776 31.1273 112.323 30.5455 112.323 30.5455L111.515 29.7697L111.418 29.2848L110.772 29.2202L109.479 27.6364L109.543 27.1838L109.156 27.1192V26.505L108.768 26.2788L108.186 26.2141L106.99 24.9212L106.893 24.3071H106.311L106.408 23.1758C106.796 22.6909 106.57 21.7535 106.57 21.7535C106.57 21.7535 105.826 22.1414 105.438 21.9798C105.05 21.8182 105.6 21.4303 105.6 21.4303V21.0101L105.277 20.6869C105.277 20.6869 104.372 20.7838 104.307 20.6222C104.242 20.4606 104.081 19.7495 104.081 19.7495L104.016 18.8121L103.628 18.6505L103.564 18.3273L102.982 18.3919V17.7455L102.659 17.6485L102.335 17.4869L102.271 16.8404L101.075 16.7758L100.687 16.2263L100.267 15.5798L98.9091 15.4828L98.5858 15.1596L98.0364 15.0626L97.6485 14.901L97.4869 15.1596L96.4525 15.2242L96.3879 15.5475C95.9353 15.7737 93.802 15.5475 93.7374 15.7091ZM83.8465 15.3859C83.9434 15.5475 84.5899 15.7091 84.5899 15.7091C85.0101 15.7091 85.301 16.0323 85.301 16.1939C85.301 16.3556 85.8828 16.2909 85.8828 16.2909L85.9475 15.903L85.5273 15.3535L85.1394 15.0949C85.1394 15.0949 84.5576 15.0303 84.5576 14.8687C84.5576 14.7394 83.9434 15.2242 83.8465 15.3859ZM83.8465 17.2283L83.4263 17.1313V17.6162L84.0081 17.6808L83.8465 17.2283ZM89.8263 23.2404V22.8202C89.8263 22.8202 89.7616 22.4 89.503 22.4C89.2444 22.4 88.7596 22.0768 88.8566 21.8505C88.9535 21.6242 87.9515 21.398 87.9515 21.398C87.9515 21.398 87.0465 20.5253 87.3697 20.6222C87.6929 20.7192 87.5313 20.2343 87.5313 20.2343C87.5313 20.2343 86.8848 20.3313 86.7232 20.299C86.5616 20.2343 86.6263 19.7495 86.6263 19.7495C86.6263 19.7495 85.9798 19.5879 85.9798 19.7495C85.9798 19.9111 86.2061 19.9111 86.303 20.2343C86.4 20.5576 86.3677 21.1071 86.8525 21.204C87.3374 21.301 87.4343 21.4303 87.499 21.6566C87.5636 21.8828 88.1455 21.9152 88.1455 21.9152L88.5656 22.1414L89.8263 23.2404ZM90.2465 24.6949C90.1818 24.4687 90.0848 23.7253 90.4081 23.7576C90.7313 23.8222 90.505 23.7576 90.8929 23.9192C91.2808 24.0808 91.3131 23.6606 91.3131 23.6606H91.8949L92.6384 24.2747L92.5414 24.7596L91.9919 24.8242C91.7333 24.404 91.1838 24.5657 91.2808 24.9212C91.3778 25.3091 91.0222 26.0202 90.7959 26.0525C90.5697 26.1172 89.8909 26.1172 89.9232 25.7939C90.0202 25.4707 90.2465 24.6949 90.2465 24.6949ZM99.103 32.1293L99.4909 30.9333C98.9414 30.8364 99.0707 30.2222 99.0707 30.2222C99.0061 29.7374 98.2626 29.1879 98.004 29.3495C97.7454 29.5111 97.8424 28.2182 97.8424 28.2182C97.8424 28.2182 98.3273 27.8949 98.5535 28.0566C98.7798 28.2182 96.7111 25.3414 96.2909 25.6C95.8707 25.8586 94.901 25.3414 94.9333 24.8242C94.998 24.3394 92.9939 22.6909 92.9939 22.6909C92.9939 22.6909 92.3475 22.2707 92.2505 22.5939C92.1535 22.9172 91.9273 23.1434 92.2505 23.305C92.5737 23.4667 92.5091 23.0465 92.897 23.402C93.2848 23.7899 93.9636 24.2747 93.705 24.598C93.4465 24.9212 93.1232 25.0505 93.1232 25.0505L93.5111 25.503H94.0929L94.1899 26.4404C94.1899 26.4404 94.8364 26.7636 94.998 27.1515C95.1596 27.5394 95.1596 27.7657 94.998 27.9596C94.8364 28.1859 94.5131 28.5737 94.5778 28.9293C94.6424 29.3172 95.0626 29.4788 95.0626 29.4788L95.4828 29.5434L95.806 29.705V30.4162C96.2263 30.3192 96.9374 30.901 96.8727 31.2889C96.8081 31.6768 96.9697 31.4505 97.5192 31.8384C98.0687 32.2263 97.9071 32.2909 98.2626 32.5495C98.6182 32.7758 98.9414 32.6141 99.103 32.1293ZM86.7555 39.1111C86.7555 39.2727 86.6586 39.499 86.9818 39.5636C87.305 39.6283 87.8869 39.3374 87.9515 39.6606C88.0162 39.9838 88.0162 40.2101 88.4364 40.3717C88.8566 40.5333 89.1475 40.598 89.4707 40.598C89.7939 40.598 90.505 40.501 90.505 40.501C90.505 40.501 91.2808 40.6303 91.4101 40.7596C91.9919 41.3737 92.3798 41.5354 92.5414 41.2444C92.703 40.9859 92.4768 40.3717 92.4444 40.1455C92.3798 39.9192 91.6364 38.8848 91.3778 39.1111C91.1192 39.3374 91.0545 39.1111 90.5697 39.2727C90.0848 39.4343 89.0505 39.3374 89.0182 39.1111C88.9535 38.8848 88.2101 38.7879 88.2101 38.5616C88.2101 38.3354 87.6606 38.0768 87.7252 38.4C87.7899 38.7232 87.3374 38.8848 87.2404 38.7879C87.0788 38.6586 86.7555 39.1111 86.7555 39.1111ZM84.0727 39.6929L84.0081 40.0808L84.5899 40.1455C84.5899 40.1455 84.8485 40.3717 84.8485 40.5333C84.8485 40.6949 85.2364 40.8566 85.4303 40.8566C85.6566 40.8566 86.2384 40.404 86.2384 40.404C86.2384 40.404 86.497 39.6283 86.303 39.6929C86.0768 39.7576 85.6566 40.0808 85.5919 39.7576C85.5273 39.4343 84.8808 39.596 84.8808 39.596L84.0727 39.6929ZM81.2929 40.3071L81.4545 40.2747L81.5515 40.5657L81.3899 40.6303L81.2929 40.3071ZM81.4869 39.7899L81.8101 39.7253L81.9071 40.2101L81.6162 40.2747L81.4869 39.7899ZM82.3919 39.8545L82.4242 40.1778L83.5879 40.1455V39.8222L82.3919 39.8545ZM92.8646 39.596L93.4141 39.5313L93.4465 39.8545L92.897 39.9192L92.8646 39.596ZM94.2869 40.7919L94.4485 40.404L94.7394 40.5333L94.5778 40.9212L94.2869 40.7919ZM98.9737 35.3293L99.5232 35.297L99.5555 35.6202L99.0061 35.6525L98.9737 35.3293ZM99.8788 35.6525H100.202V35.9111H99.8788V35.6525ZM100.848 31.0626L100.525 31.0949L100.461 30.6101L100.784 30.5778L100.848 31.0626ZM100.525 37.8505H100.848V38.2384H100.525V37.8505ZM101.236 38.0444L101.527 38.1737L101.366 38.5293L101.075 38.3677L101.236 38.0444ZM99.6525 33.7455C99.9758 33.7455 99.5555 35.0061 100.396 34.8768C101.269 34.7798 100.461 35.2646 101.107 35.297C101.754 35.3616 101.592 34.8121 101.818 34.4242C102.044 34.0364 101.915 33.8101 101.56 33.7131C101.172 33.6162 101.172 33.6162 101.075 33.1636C100.978 32.7434 100.525 32.6141 100.525 32.6141L100.364 31.9677L99.6525 32.3879L98.9414 33.3252C98.9414 34.101 99.3293 33.7455 99.6525 33.7455ZM101.754 36.7192C102.174 36.4929 103.111 36.4929 103.046 36.1697C102.982 35.8465 103.596 35.7495 103.596 35.7495L103.758 36.396L104.242 36.7192L104.307 37.3333C104.307 37.3333 104.469 37.2364 103.887 37.398C103.305 37.5596 103.661 37.8182 103.661 37.8182L102.368 37.8828L102.206 37.3333L101.754 36.7192ZM94.804 41.2768C95.0626 41.2121 95.7091 41.1798 95.8384 41.3414C95.9353 41.503 95.4505 41.7293 95.4505 41.7293L94.804 41.8263C94.6101 41.5677 94.5455 41.3414 94.804 41.2768ZM98.2626 40.7919C98.5535 41.0828 96.6465 41.0182 96.6465 40.7919C96.6465 40.5657 96.8081 39.8222 97.2929 39.9838C97.7778 40.1455 97.8424 39.0141 97.8424 39.0141C97.8424 39.0141 97.4222 39.0788 97.7778 38.8525C98.1656 38.6263 97.7778 38.303 97.6162 38.1414C97.4545 37.9798 97.2929 37.6889 97.2929 37.6889H98.0364C98.3596 37.4626 98.4566 36.4283 98.4566 36.4283C99.103 36.6545 99.4263 36.202 99.4263 36.202C99.4263 36.202 99.5232 36.5253 99.7495 36.8162C99.9758 37.0747 99.2 37.204 99.4909 37.3657C99.7495 37.5273 99.8788 38.0121 99.7495 38.1737C99.6525 38.3354 99.0384 38.2384 99.0384 38.0121C99.0384 37.7859 98.8121 38.2707 99.0384 38.5616C99.2646 38.8202 98.7798 39.2081 98.6505 39.2081C98.5535 39.2081 97.8424 39.305 98.4242 39.6606C99.0061 39.9838 99.6525 39.8222 99.6525 39.8222C99.6525 39.8222 100.137 39.7576 100.299 40.0485C100.461 40.3071 100.234 40.3717 99.9758 40.3717C99.7172 40.3717 98.4242 40.2747 98.4242 40.2747C98.4242 40.2747 98.101 40.6303 98.2626 40.7919ZM104.533 34.6182C104.372 34.3919 104.21 34.2303 103.984 34.1333C103.758 34.0364 103.596 33.9071 103.402 33.9071C103.176 33.9071 102.982 33.6808 103.079 33.4222C103.176 33.1636 102.917 33.0343 102.917 32.8081C102.917 32.5818 103.079 32.5818 103.337 32.7434C103.596 32.905 103.564 32.9697 103.758 33.2283C103.984 33.4869 104.081 33.7778 104.307 33.7131C104.533 33.6485 104.695 34.198 104.889 34.0364C105.115 33.8747 105.05 34.4242 105.05 34.4242L104.533 34.6182ZM104.016 35.1354C104.178 35.3616 104.501 35.5232 104.501 35.7495C104.501 35.9758 104.404 36.1374 104.727 36.1697C105.05 36.2343 105.277 36.105 105.374 36.396C105.471 36.6545 105.471 37.1071 105.438 37.3333C105.374 37.5596 105.503 37.8828 105.762 37.8828C106.02 37.8828 106.085 37.9475 106.085 38.1091C106.085 38.2707 106.408 37.4949 106.408 37.4949C106.149 37.2687 105.923 36.7838 105.923 36.7838C105.923 36.7838 105.665 36.0081 105.665 35.9111C105.665 35.8141 105.277 35.6848 105.115 35.6525C104.954 35.5879 104.695 35.103 104.695 35.103L104.016 35.1354ZM107.507 43.9596L107.281 43.4747C107.281 43.4747 107.281 43.0545 107.378 42.8283C107.475 42.602 107.152 42.4081 106.99 42.3434C106.828 42.2788 106.893 41.8586 106.828 41.6323C106.764 41.4061 106.408 41.2444 106.408 41.2444C106.408 41.2444 106.311 40.4364 106.311 40.2747C106.311 40.1131 105.826 39.8869 105.988 39.7253C106.149 39.5636 106.246 39.3374 106.408 39.2404C106.57 39.1434 106.246 38.3677 106.505 38.5293C106.764 38.6909 106.764 38.9818 106.893 39.1758C106.99 39.402 106.828 40.1455 107.119 40.3071C107.378 40.4687 107.055 41.0182 107.507 41.0182C107.927 41.0182 107.669 42.0525 107.669 42.0525C107.669 42.0525 107.572 42.8283 107.83 42.8606C108.089 42.9252 107.927 44.2182 107.927 44.2182L107.507 43.9596ZM107.669 48.1293L107.83 47.8061L108.121 47.9677L107.96 48.2909L107.669 48.1293ZM108.024 46.3515L108.347 46.3838L108.315 46.8364L107.992 46.7717L108.024 46.3515ZM107.345 44.5414L106.925 44.4768L105.956 44.6384L105.406 45.6727C105.406 45.6727 105.665 45.8343 105.891 46.2222C106.117 46.6101 106.214 48.8404 105.568 49.2283C104.921 49.6162 105.632 49.3899 105.632 49.3899L105.535 50.5859C105.697 51.1353 105.956 50.8444 106.117 50.5859C106.279 50.3273 106.44 50.2626 106.667 49.9717C106.893 49.7131 107.216 49.196 107.248 48.8404C107.313 48.4525 107.572 47.8707 107.41 47.7091C107.248 47.5475 107.572 46.7717 107.572 46.7717C107.572 46.7717 107.798 46.3192 107.572 45.899C107.345 45.4465 107.636 44.9616 107.798 44.7677L107.345 44.5414ZM104.986 38.9818H104.178C104.178 38.9818 104.436 39.0788 103.693 38.3677C102.949 37.6566 102.465 38.5293 102.465 38.5293L101.592 38.6263V39.499L101.172 39.6606L101.236 40.2101L101.818 40.1455C101.818 40.1455 101.818 40.7919 101.98 40.5333C102.141 40.2747 103.499 40.598 103.37 41.2444C103.337 41.503 104.727 42.2141 104.566 43.0869C105.277 43.1838 105.115 43.8949 105.115 43.8949L106.02 43.9919L106.279 43.4424L106.537 43.5071V43.1838L105.956 43.0222L105.859 41.2768L105.471 41.0182L105.568 40.5657L105.147 40.404L105.374 39.6929L104.986 38.9818ZM102.982 52.3636L103.305 52.2343L103.176 51.9758L103.111 51.7818L102.949 51.8788L102.562 52.105L102.206 51.8788L102.044 52.1697L102.465 52.4283L102.562 52.4929L102.626 52.4283L102.949 52.2667L102.982 52.3636ZM104.404 51.6525L104.986 51.7495L105.05 51.4263L104.469 51.3293L104.404 51.6525ZM103.305 58.6343C103.079 58.3111 104.372 57.7616 104.598 58.4081C104.824 59.0545 104.598 58.9576 104.372 58.8929C104.178 58.8283 103.628 59.0545 103.305 58.6343ZM97.7454 69.1394H98.1333V70.1737H97.7454V69.1394ZM100.234 79.1273C100.137 79.5475 99.7495 79.7737 99.5232 79.6121C99.297 79.4505 99.7818 79.8707 99.9111 80.097C100.008 80.3232 100.331 80.3232 100.461 80.097C100.558 79.8707 100.525 79.3859 100.622 79.1596C100.719 78.9656 100.299 78.901 100.234 79.1273ZM101.43 81.3252L101.915 81.5515L101.98 82.4889C102.626 83.1353 104.727 82.5859 104.727 82.4242C104.727 82.2626 104.63 80.4202 104.63 80.4202L104.372 80.1616L104.307 78.804C104.533 78.0929 103.273 77.0586 103.176 77.2848C103.079 77.5111 102.368 77.3495 102.368 77.5434C102.368 77.7697 101.947 78.8364 102.141 79.2242C102.368 79.6121 101.98 79.6121 101.915 80C101.851 80.3232 101.301 80.9697 101.43 81.3252ZM86.303 69.6566L86.1414 69.398L85.6889 69.6566L85.8828 69.9475L86.303 69.6566ZM78.0929 70.7232C77.8343 70.9818 77.899 71.2081 78.0929 71.402ZM79.7737 72.0485L80.1293 71.4343L79.8384 71.3374L79.4505 71.596L79.6121 71.7576L79.7737 72.0485ZM79.4505 55.0141C79.6768 55.499 79.6121 56.2101 80.4202 56.7596C80.6788 56.9535 80.2586 57.3091 80 57.1475C79.7414 56.9859 78.9657 55.7899 78.9657 55.7899V55.0788C79.1273 54.6586 79.3535 54.8202 79.4505 55.0141ZM76.6061 57.8586C76.7353 58.3434 76.703 57.0828 76.9293 57.1475C77.1555 57.2121 76.9939 56.3717 76.9939 56.3717L76.0242 57.0828C76.4768 57.1475 76.5414 57.6323 76.6061 57.8586ZM73.697 61.3495C73.6323 61.996 72.8242 62.2222 72.8242 62.2222L72.2424 62.0606L71.9192 61.802L71.8545 61.0263L72.3394 60.9616L72.4364 61.2848L73.697 61.3495ZM72.8242 54.7556V53.9798L72.7273 53.2687L71.9192 52.8808L71.3374 53.4303L71.2404 54.2061V54.6909L70.6909 54.7879L70.5939 56.2747L70.1737 56.4364L70.2384 56.9859L69.0747 57.3091L68.9778 58.0202L68.5576 58.2788L68.3313 58.9252L68.0727 60.5091C68.0727 60.5091 68.5576 61.4465 68.8162 60.9939C69.0747 60.5737 69.5273 60.5091 69.5273 60.5091L69.6889 60.1212L71.1434 60.1859C71.2404 59.5717 71.9515 59.798 71.9515 60.0889C71.9515 60.3475 72.501 60.1535 72.501 60.1535L72.8889 59.5394H73.4707L73.5353 58.8929L73.7939 58.7313V57.7616C74.6667 57.503 74.5374 56.6626 74.5374 56.6626L74.7636 56.404L74.6667 56.0162C74.2465 55.8545 74.4404 55.4667 74.7313 55.5636C74.9899 55.6606 74.3434 55.0788 74.3434 55.0788C74.0202 55.3374 73.7616 54.7556 73.7616 54.7556H72.8242ZM70.3677 52.5252L69.9475 52.6222L68.9778 53.5596L68.9131 53.9798L68.6545 54.3677L68.3313 55.1758L67.2 55.2404L66.9737 56.2101L67.1354 57.0505L68.105 57.4384L68.202 56.8889L68.5252 56.7273L68.5899 56.1778L68.8162 55.7899L69.1394 55.402L69.2364 54.9818L69.7859 54.6586L70.4323 54.5293L70.6909 54.2061L70.7879 53.5596L70.8525 53.0747L71.0788 52.7192L71.7252 52.4606V51.4263H71.402L71.3374 51.0384L70.7556 50.9737L70.6263 51.2646H70.3677L70.303 51.6848H70.6263L70.6909 52.0404L70.4646 52.2343L70.3677 52.5252ZM53.301 59.0869C53.301 59.2162 53.204 59.3131 53.0747 59.3131C52.9454 59.3131 52.8485 59.2162 52.8485 59.0869C52.8485 58.9576 52.9454 58.8606 53.0747 58.8606C53.204 58.8606 53.301 58.9576 53.301 59.0869ZM53.2687 65.3252C53.2687 65.4545 53.1717 65.5515 53.0424 65.5515C52.9131 65.5515 52.8162 65.4545 52.8162 65.3252C52.8162 65.196 52.9131 65.099 53.0424 65.099C53.1717 65.099 53.2687 65.196 53.2687 65.3252ZM52.6869 64.4202C52.8162 64.4202 52.9131 64.3232 52.9131 64.1939C52.9131 64.0646 52.8162 63.9677 52.6869 63.9677C52.5576 63.9677 52.4606 64.0646 52.4606 64.1939C52.4606 64.3232 52.5576 64.4202 52.6869 64.4202ZM52.0404 65.7131L51.5879 65.7778V66.1657L52.0404 66.101V65.7131ZM52.5252 62.9333L52.1374 62.998L52.105 63.4182L52.5252 63.4828V62.9333ZM52.4283 59.9919L52.4606 59.604L51.6525 60.1535L51.1353 59.8303V61.1232L51.9758 62.2869L52.299 61.5111L52.4283 61.0263L52.0404 60.8646L52.105 60.0566L52.4283 59.9919ZM52.105 55.402L51.1353 55.305L51.2 55.6929H51.4586C51.8788 56.4687 51.5232 58.3111 51.5232 58.3111C51.5232 58.3111 50.8768 58.3758 50.7798 58.0525C50.6828 57.7293 50.3919 58.7636 50.6182 58.9252C50.8444 59.0869 51.5879 58.9252 51.6525 59.5394C51.7172 60.1535 52.1374 59.1515 52.1374 59.1515L52.105 55.402ZM73.7616 44.6061H73.1798L73.0828 43.4101L73.4061 43.1838V42.5697H71.5313L71.4667 41.9556L71.7252 41.7939L71.305 41.6323L70.9818 42.0525L70.8848 42.5374L70.3353 42.6343V42.8929H69.9475V43.604L68.4283 44.8646L65.4222 44.7677C65.196 45.2525 64.6788 44.703 64.6788 44.703C64.5818 44.3798 63.8061 44.703 63.8061 44.703C63.8061 45.3172 62.7717 44.4444 62.7717 44.4444L60.897 43.0869C59.8303 42.1172 58.2141 43.3454 58.1495 43.6364C58.2141 44.4121 56.9212 43.798 56.9212 43.798C56.9212 43.798 55.8545 43.4747 55.6929 43.8949C55.5313 44.3151 54.8202 44.2182 54.8202 44.2182L54.7232 44.4444L54.1737 44.5414L54.0768 44.8646L53.4303 44.9616L55.0465 44.897C55.4667 44.8323 54.8848 45.8343 54.6263 45.7697L53.8828 45.8343L53.6242 46.0929H52.9131L52.5899 46.5454L51.5556 46.4808C51.5556 46.4808 50.9737 46.9657 51.0061 47.1273C51.0707 47.2889 50.9091 47.7737 50.7475 47.7737C50.5859 47.7737 50.2626 48.2586 50.3596 48.4202C50.4566 48.5818 50.0364 49.1313 50.0364 49.1313L49.9394 49.6808L49.6162 49.7778V51.2646L48.9697 51.7172V52.3636L48 53.398L48.097 54.2707L47.2889 55.1434L47.3859 56.0162L46.901 56.1778L46.804 56.5657L46.5778 57.697L47.1273 57.7616C47.3859 57.6646 47.3535 58.4727 47.1273 58.5697C46.901 58.6667 46.3192 58.8929 46.6424 59.1192C46.9657 59.3455 45.7697 59.2808 45.7697 58.9576C45.7697 58.6343 45.1232 58.3434 44.9616 58.4727C44.8 58.5697 44.5414 57.9879 44.5414 57.9879C43.9596 57.3737 42.1172 58.0525 42.1172 58.0525L41.8586 58.9252C41.2768 59.0222 40.8889 60.0242 40.8889 60.0242C40.404 60.1859 40.0162 60.8 40.1778 60.9616C40.3394 61.1232 39.9192 61.1879 39.9192 61.1879V62.3838L39.6606 62.7717L39.7252 64.0646C40.0485 64.0646 39.9838 64.6788 39.9838 64.6788C39.4343 64.7434 39.5636 65.4545 39.5636 65.4545L38.4323 65.8424L38.2061 66.1657L36.8162 66.101L36.4283 66.4889L36.0404 66.101H33.3576L33.2606 65.8424L32.7111 65.7455L32.6465 65.1313L31.8384 65.196L31.6768 65.5192L30.804 65.5838C30.8687 66.1333 29.9313 66.9414 29.8343 66.7151C29.7374 66.4889 29.1232 65.9071 29.4141 65.7778C29.6727 65.6808 30.3838 65.5515 30.3838 65.5515V65.1636L28.3798 65.099L28.1535 65.4222L27.3455 65.4869V66.3596L26.9576 66.4566C26.699 66.6182 27.0222 67.2323 27.0222 67.2323C27.4101 67.6202 26.9576 68.202 26.9576 68.202C26.6343 68.5252 27.2162 69.1394 27.2162 69.1394C27.6364 69.2364 26.9576 69.5596 26.9576 69.5596C27.0545 70.1091 27.3778 70.2707 27.3778 70.2707C27.0545 70.8202 27.604 71.0788 27.604 71.0788L27.6687 72.0162L28.0566 72.2424V72.8566L28.2828 73.2444H29.1556L29.0909 71.8869C28.3475 71.0141 29.7374 70.7879 29.802 71.1111C29.8667 71.4343 30.4485 71.596 30.4485 71.596C30.5455 72.404 31.4828 72.8889 31.7414 72.0808C32 71.2727 32.2263 71.7576 32.3879 72.1454C32.5495 72.5333 33.5838 73.4707 33.5838 73.4707H34.3919L34.4889 74.2465C35.3939 74.1818 35.6848 74.3111 36.0404 75.5394C36.4283 76.8 37.4303 77.1232 37.4303 77.1232L38.1737 77.0586C38.1737 76.4121 38.9172 77.1556 38.9172 77.5111C38.9172 77.8343 40.3717 79.0949 40.3717 79.0949L41.8263 79.4182L43.1838 80.5172L44.2182 80.4202H44.6384C44.897 79.4828 46.1899 80.4848 46.3192 80.8081C46.4162 81.1313 47.2889 81.6808 47.3859 81.4222C47.4828 81.1636 48.097 81.3252 48.1939 82.1333C48.2909 82.9414 48.6788 82.7798 48.6788 82.7798L51.7495 82.7151L52.8162 81.7778L55.5636 81.7131C56.9535 81.6485 56.1131 79.7414 55.8222 79.7414C55.3374 79.3535 55.9838 77.7697 55.9838 77.7697L52.0727 74.1172C51.1677 74.1172 51.9758 72.7919 51.9758 72.7919C52.6869 72.3394 51.8141 71.6606 51.8141 71.6606C51.9111 71.0141 51.4263 70.2384 51.4263 70.2384C50.4566 69.5919 50.7151 68.3313 50.7151 68.3313V67.4586C49.9071 66.6828 51.0384 66.5859 51.0384 66.5859C51.4263 65.9394 50.7798 65.4545 50.7798 65.4545L50.7151 64.7434L49.8424 64.6465L49.7455 62.0929L47.8061 59.3131C47.4182 59.2162 47.7091 58.5374 47.7091 58.5374C48.1939 58.2788 47.6121 57.6 47.6121 57.6L47.5475 56.404L48.6788 56.3071L48.9374 55.8869H49.4869L49.4222 54.4646C49.6808 53.7535 50.3273 54.1414 50.3273 54.1414L51.0707 54.2061L51.4909 53.398L51.5879 52.7515L51.0061 52.6869C50.3596 52.299 50.6828 50.8768 50.6828 50.8768C51.7172 49.3576 52.8808 50.2303 52.8808 50.2303L53.6242 50.1657C54.7556 50.9414 53.7212 52.3313 53.7212 52.3313C53.4949 52.6545 53.6242 53.6889 53.6242 53.6889L53.8828 55.4343L53.1717 56.0485C52.5899 56.3717 52.5899 57.1475 53.2364 57.3091C53.6566 57.3737 53.4949 58.4081 52.8485 57.697C51.8788 57.697 53.398 58.5697 52.9455 58.3434C53.9151 58.8283 53.6889 57.9232 53.6889 57.9232L54.9818 56.8889C55.4667 56.501 56.3394 57.697 56.3394 57.8586C56.3394 58.0202 58.4727 57.9232 58.4727 57.9232C59.0545 58.3111 59.2808 59.2808 59.2808 59.2808C59.8626 58.505 61.1232 59.2162 60.1859 59.6687C61.0586 60.2182 61.0586 60.703 61.0586 60.703C61.7697 60.4768 61.7697 61.0263 61.7697 61.1879C61.7697 61.3495 61.996 60.3798 61.996 60.3798C61.1879 59.7657 63.0626 59.5717 62.5454 60.6384L62.2222 61.1232L62.7717 61.5434L62.8364 62.804C64.0323 62.7071 63.7091 61.2202 63.7091 61.2202L64.2586 61.1232C64.2586 60.6384 64.6465 60.897 64.6465 60.897C64.2586 59.0545 65.5192 58.7313 65.5192 58.7313C66.2303 58.5697 66.2626 57.0828 66.2626 57.0828C65.7778 56.8566 66.0364 56.1131 66.5859 56.7596C67.1353 57.4061 66.2626 55.4343 66.2626 55.4343L65.8424 55.0465L65.2606 54.9818L65.196 54.3677H64.2263L64.0646 55.1434L63.7091 55.305L63.6121 55.0788L63.4505 55.6929H62.4808L62.4162 55.0465L62.998 54.8848L63.2242 54.5616L63.3859 53.6889H64.097L65.002 53.4303C65.0667 52.4929 65.5515 52.7192 65.5515 52.7192L66.3596 53.3657L66.4242 53.6889L66.101 53.8505L66.0364 54.303L66.198 54.9172H66.6182C66.7798 54.0444 67.9111 54.0444 68.2343 54.5939L68.5576 53.8182C67.8141 53.4303 68.5576 52.8485 68.7515 53.1071C68.9778 53.3657 69.4626 52.396 69.4626 52.396C69.4626 52.396 69.8505 52.8808 69.4626 52.2343C69.0747 51.5879 69.7212 51.2646 69.7212 51.2646C69.6242 50.6182 70.4323 50.7151 70.4323 50.7151L70.497 49.8424L69.7535 49.7778C69.5919 50.5535 68.9454 49.8747 69.2687 49.7131C69.5919 49.5515 69.9151 49.2283 69.9151 49.2283V48.6788L70.2384 48.5818L70.303 48.0323H71.1111L71.8222 47.7091L71.9838 47.4505L72.7273 47.3859L73.7939 46.4162L73.697 45.996C73.0505 45.996 73.697 45.5111 73.697 45.5111L73.7616 44.6061ZM44.5737 93.6404L44.1535 92.9939L44.8 93.0909L45.4788 93.6727L45.7697 94.3838L45.3818 94.6101L45.1556 94.2869L44.6384 94.1252L44.5737 93.6404ZM32.7111 77.2848L32.9697 78.0283L33.3576 78.3192L33.7131 79.1273L33.5192 79.5151L32.905 78.9657L32.4848 78.3515L32.2586 77.8667L31.903 76.897L32.7111 77.2848ZM29.4788 74.3758H29.2202V74.9252H29.6404V75.6364H29.9636L29.899 74.8283L29.4788 74.6667V74.3758ZM71.7576 41.1475L72.0808 41.0828L72.1455 41.4061L71.8222 41.4707L71.7576 41.1475ZM72.1455 40.9535L72.2424 40.6303L72.6626 40.7596L72.598 41.0828L72.1455 40.9535ZM72.9212 40.6303L72.9535 40.3071L72.598 40.2424L72.5333 40.5657L72.9212 40.6303ZM73.4707 39.9192H73.8909V40.2424H73.4707V39.9192ZM76.2182 40.3071L76.2505 39.9838L76.6384 40.0162L76.5737 40.3394L76.2182 40.3071ZM77.2848 40.5333L77.3172 40.2101L76.9293 40.1455L76.897 40.4687L77.2848 40.5333ZM77.6727 40.5657H78.0929V40.8889H77.6727V40.5657ZM78.1576 41.1151V41.503L78.4808 41.4707V41.0828L78.1576 41.1151Z" fill="white"/>
</svg>
