<svg width="81" height="46" viewBox="0 0 81 46" fill="none" xmlns="http://www.w3.org/2000/svg">
<path d="M70.6704 34.1103C69.1293 32.9078 66.8793 33.1635 65.656 34.6785C64.1409 36.5564 62.7646 37.6868 61.1958 38.3447C58.3024 39.555 55.8498 39.0435 53.4786 36.7341C51.1551 34.4715 48.8913 32.006 46.6949 29.6165C45.6205 28.4471 44.5442 27.2758 43.454 26.1182C41.5912 24.1406 39.7186 22.1709 37.8478 20.1992L37.6829 20.0254C33.6139 15.7443 29.4078 11.3167 25.3507 6.86963C22.1336 3.34202 17.163 1.59479 12.3809 2.30149C7.49364 3.01991 3.54175 6.09462 1.25206 10.9575C-0.954206 15.6408 -0.207534 20.9624 3.1982 24.8453C9.18963 31.676 14.2437 37.3236 20.1636 42.6356C22.5844 44.8064 25.5136 45.9621 28.6333 45.9777C30.657 45.9875 33.7072 45.763 36.8191 43.7034C38.1815 42.8015 39.4504 41.8742 40.0085 40.4589C40.5765 39.0104 40.0462 37.3452 38.7157 36.4062C37.4248 35.4926 35.7309 35.5569 34.4997 36.5623C34.3447 36.6892 34.1759 36.8356 33.9913 36.9938C32.057 38.659 29.6501 40.7322 24.743 37.269C20.247 34.0947 16.7658 29.9346 12.7324 25.1167C11.4178 23.5471 10.0575 21.9229 8.60382 20.2635C7.05083 18.4929 6.7152 16.0566 7.72802 13.9033C8.61178 12.0293 10.3176 9.69832 13.4394 9.23961C15.8045 8.8901 18.4557 9.81931 20.0385 11.5529C24.1294 16.039 28.3673 20.5017 32.4661 24.8141C34.3865 26.8346 36.3067 28.857 38.2172 30.8854C39.2876 32.0216 40.3441 33.1713 41.4165 34.3388C43.6685 36.7888 45.9959 39.3208 48.4544 41.7161C52.8928 46.0401 58.4096 47.1353 63.9959 44.7986C66.6788 43.6721 68.9844 41.8429 71.2483 39.0377C72.4696 37.5248 72.2114 35.3148 70.6704 34.1103Z" fill="white"/>
<path d="M76.2545 14.6225C78.5621 13.5468 80.3772 11.5224 80.5499 9.06655C80.9888 4.80306 77.4182 0.722979 72.1655 0.09237C68.9405 -0.309723 65.9478 0.629294 63.8269 2.35698C62.693 3.28424 62.3871 5.00024 63.3701 6.21059C64.4444 7.46973 65.6836 7.69026 67.7113 6.5952C68.4381 6.18914 69.5303 5.85138 70.7318 5.93332C72.9977 6.08762 73.647 8.09443 73.5835 9.00608C73.5735 9.14081 73.5875 12.2486 70.3962 12.032L69.1927 11.95C67.8523 11.8602 66.5117 13.092 66.4125 14.5014C66.3052 16.0008 67.4213 17.3107 68.8094 17.4064L70.2889 17.5059C74.36 17.7831 73.935 21.1799 73.8496 21.7227C73.7702 23.2844 71.2203 25.9335 66.6726 22.9212C65.1296 21.9003 54.1239 8.31109 54.1239 8.31109C48.909 1.68345 40.048 0.516026 33.0557 5.53707C32.2872 6.0895 31.7807 6.90356 31.6338 7.83093C31.4888 8.75621 31.7172 9.68353 32.2792 10.439C32.8412 11.1945 33.6694 11.6923 34.6107 11.8368C35.5579 11.9812 36.4972 11.7548 37.2658 11.2023C42.0358 7.77625 46.2876 9.81815 48.474 12.5981C48.474 12.5981 60.29 27.5382 63.3324 29.1214C65.3064 30.1483 67.3677 30.7417 69.4628 30.8842C75.8931 31.3215 79.8092 27.8388 80.8658 23.0677C81.5587 19.9403 79.5014 16.032 76.2545 14.6225Z" fill="white"/>
</svg>
