<svg width="34" height="42" viewBox="0 0 34 42" fill="none" xmlns="http://www.w3.org/2000/svg">
<path d="M28.3977 22.3355C28.4183 20.7257 28.8438 19.1472 29.6345 17.7471C30.4252 16.3469 31.5555 15.1705 32.9202 14.3273C32.0532 13.083 30.9095 12.0589 29.5799 11.3365C28.2503 10.6141 26.7714 10.2132 25.2607 10.1657C22.038 9.82575 18.9138 12.1038 17.2716 12.1038C15.5976 12.1038 13.0692 10.1995 10.3465 10.2558C8.5854 10.3129 6.86905 10.8276 5.36471 11.7497C3.86036 12.6717 2.61932 13.9697 1.7625 15.5171C-1.94906 21.9753 0.819425 31.4667 4.37479 36.687C6.15361 39.2432 8.23254 42.0986 10.9528 41.9974C13.6147 41.8864 14.6089 40.2915 17.822 40.2915C21.0054 40.2915 21.9381 41.9974 24.7136 41.933C27.5699 41.8864 29.3696 39.3654 31.086 36.7849C32.3641 34.9635 33.3475 32.9505 34 30.8203C32.3405 30.1149 30.9244 28.9342 29.9281 27.4254C28.9319 25.9165 28.3996 24.1463 28.3977 22.3355Z" fill="black"/>
<path d="M23.1554 6.73247C24.7128 4.85348 25.48 2.43836 25.2943 0C22.9149 0.25116 20.717 1.39405 19.1386 3.20094C18.3668 4.08366 17.7757 5.11058 17.3991 6.22302C17.0225 7.33545 16.8677 8.51158 16.9436 9.68416C18.1338 9.69648 19.3111 9.43723 20.3871 8.92595C21.4631 8.41467 22.4096 7.66468 23.1554 6.73247Z" fill="black"/>
</svg>
