<svg width="72" height="72" viewBox="0 0 72 72" fill="none" xmlns="http://www.w3.org/2000/svg">
<g opacity="0.85">
<path d="M69.3408 36.0078C69.3408 17.5983 54.4173 2.6748 36.0078 2.6748C17.5983 2.6748 2.6748 17.5983 2.6748 36.0078C2.6748 54.4173 17.5983 69.3408 36.0078 69.3408V72.0078C16.1256 72.0078 0.0078125 55.8901 0.0078125 36.0078C0.0078125 16.1256 16.1256 0.0078125 36.0078 0.0078125C55.8901 0.0078125 72.0078 16.1256 72.0078 36.0078C72.0078 55.8901 55.8901 72.0078 36.0078 72.0078V69.3408C54.4173 69.3408 69.3408 54.4173 69.3408 36.0078Z" fill="black"/>
<path d="M35.0417 52L35.1793 38.3056L23.4858 45.3056L22 42.6944L33.8861 36L22 29.3056L23.4858 26.6944L35.1793 33.6944L35.0417 20H37.9583L37.8207 33.6944L49.5142 26.6944L51 29.3056L39.1139 36L51 42.6944L49.5142 45.3056L37.8207 38.3056L37.9583 52H35.0417Z" fill="black"/>
</g>
</svg>
